<svg width="435" height="399" viewBox="0 0 435 399" fill="none" xmlns="http://www.w3.org/2000/svg">
<g clip-path="url(#clip0_3_17)">
<mask id="mask0_3_17" style="mask-type:luminance" maskUnits="userSpaceOnUse" x="30" y="320" width="59" height="56">
<path d="M88.5321 320.727H30.3193V375.979H88.5321V320.727Z" fill="white"/>
</mask>
<g mask="url(#mask0_3_17)">
<path d="M54.5747 366.77V352.957H64.2768V366.77H76.4045V348.353H83.6811L59.4257 327.633L35.1704 348.353H42.447V366.77H54.5747Z" fill="white"/>
</g>
<path d="M144.245 348.353C144.245 392.623 106.395 428.73 59.4256 428.73C12.4567 428.73 -25.3936 392.623 -25.3936 348.353C-25.3936 304.083 12.4567 267.975 59.4256 267.975C106.395 267.975 144.245 304.083 144.245 348.353Z" stroke="white" stroke-width="5"/>
<path d="M125.128 38.7121C125.128 59.0901 107.707 75.6977 86.1062 75.6977C64.5056 75.6977 47.085 59.0901 47.085 38.7121C47.085 18.334 64.5056 1.72644 86.1062 1.72644C107.707 1.72644 125.128 18.334 125.128 38.7121Z" stroke="white" stroke-width="2"/>
<path d="M433.17 138.856C433.17 159.234 415.75 175.842 394.149 175.842C372.549 175.842 355.128 159.234 355.128 138.856C355.128 118.478 372.549 101.87 394.149 101.87C415.75 101.87 433.17 118.478 433.17 138.856Z" stroke="white" stroke-width="2"/>
<path d="M217.298 188.353C217.298 208.731 199.877 225.338 178.277 225.338C156.676 225.338 139.255 208.731 139.255 188.353C139.255 167.975 156.676 151.367 178.277 151.367C199.877 151.367 217.298 167.975 217.298 188.353Z" stroke="white" stroke-width="2"/>
<path d="M405.276 332.237C405.276 352.615 387.856 369.223 366.255 369.223C344.654 369.223 327.234 352.615 327.234 332.237C327.234 311.859 344.654 295.252 366.255 295.252C387.856 295.252 405.276 311.859 405.276 332.237Z" stroke="white" stroke-width="2"/>
<path d="M67.915 268.928L82.4682 75.5468" stroke="white" stroke-width="2" stroke-linecap="round"/>
<path d="M144.319 355.259L328.66 342.597" stroke="white" stroke-width="2" stroke-linecap="round"/>
<path d="M107.936 281.59L162.511 221.734" stroke="white" stroke-width="2" stroke-linecap="round"/>
<path d="M137.042 316.698L367.468 167.633" stroke="white" stroke-width="2" stroke-linecap="round"/>
</g>
<defs>
<clipPath id="clip0_3_17">
<rect width="435" height="399" fill="white"/>
</clipPath>
</defs>
</svg>
